# Minecraft-safe runtime adaptation of Kenney Space Kit (CC0).
# source=craft_speedera.obj scale=2.60 uv=center-sampled
# Created by Kenney (www.kenney.nl)


g craft_speederA

v 2.6000000 0.5200000 -1.6900003
v 2.6000000 0.5200000 -0.9100000
v 1.3000000 0.7366666 -1.6900003
v 1.0400000 0.7800000 0.1299999
v 1.0400000 0.7800000 -1.6900003
v 1.0400000 0.7800000 -0.3900000
v 1.3000000 0.0000000 -2.7300000
v 0.7800000 0.2600000 -2.7300000
v 0.5200000 0.0000000 -2.7300000
v 0.5200000 1.3000000 -2.7300000
v 0.7800000 1.0400000 -2.7300000
v 1.0400000 1.0400000 -2.7300000
v 1.0400000 0.2600000 -2.7300000
v 1.3000000 1.3000000 -2.7300000
v 0.7800000 0.7800000 0.1299999
v 0.5200000 0.7800000 -0.1299999
v 0.6500000 0.7800000 0.6500000
v 0.5200000 0.7800000 0.6500000
v 0.7800000 0.7800000 0.3900000
v -0.5200000 0.0000000 -2.7300000
v -1.0400003 0.2600000 -2.7300000
v -1.3000000 0.0000000 -2.7300000
v -1.3000000 1.3000000 -2.7300000
v -1.0400003 1.0400000 -2.7300000
v -0.7800000 1.0400000 -2.7300000
v -0.7800000 0.2600000 -2.7300000
v -0.5200000 1.3000000 -2.7300000
v -0.5200000 0.7800000 0.6500000
v -0.7800000 0.7800000 0.1299999
v -0.5200000 0.7800000 -0.1299999
v -1.0400003 0.7800000 -0.3900000
v -0.6500000 0.7800000 0.6500000
v -1.0400003 0.7800000 0.1299999
v -0.7800000 0.7800000 0.3900000
v -1.0400003 0.7800000 -1.6900003
v -1.3000000 0.7366666 -1.6900003
v -2.6000000 0.5200000 -0.9100000
v -2.6000000 0.5200000 -1.6900003
v 0.7800000 0.2600000 0.6487096
v 0.7800000 0.2600000 0.1299999
v -0.7800000 0.2600000 0.6487096
v 0.5200000 0.2600000 0.1299999
v -0.5200000 0.2600000 0.1299999
v -0.5200000 0.2600000 -0.9100000
v -0.7800000 0.2600000 0.1299999
v -1.3000000 0.2600000 -1.6900003
v -0.5200000 0.2600000 -1.6900003
v -1.0400003 0.2600000 0.1299999
v -2.6000000 0.2600000 -0.9100000
v -2.6000000 0.2600000 -1.6900003
v 0.5200000 0.2600000 -1.6900003
v 1.0400000 0.2600000 0.1299999
v 1.3000000 0.2600000 -1.6900003
v 2.6000000 0.2600000 -1.6900003
v 2.6000000 0.2600000 -0.9100000
v 0.5200000 0.2600000 -0.9100000
v -0.5200000 0.7929355 2.7300000
v -0.7800000 0.5200000 0.6500000
v -0.5200000 0.5200000 0.6500000
v -0.6500000 0.5200000 0.6500000
v 0.7800000 0.5200000 0.6500000
v 0.5200000 0.7929355 2.7300000
v 0.6500000 0.5200000 0.6500000
v 0.5200000 0.5200000 0.6500000
v -0.7800000 0.5200000 0.3900000
v -0.5200000 0.5458710 2.7300000
v 0.5200000 0.5458710 2.7300000
v 0.7800000 0.5200000 0.3900000
v 0.6630000 1.0400000 -1.6900003
v 0.6630000 1.0400000 -0.9100000
v 0.5200000 1.0400000 -1.6900003
v 0.5200000 1.0400000 -0.1299999
v 0.5200000 1.0400000 -0.9100000
v 1.0400000 1.0400000 -0.3900000
v 1.0400000 1.0400000 -0.9100000
v 0.9457500 1.6900000 -1.9500000
v 1.0400000 1.0400000 -1.6900003
v 0.9457500 1.6900000 -1.5599997
v 0.7572500 1.6900000 -1.9500000
v 0.7572500 1.6900000 -1.5599997
v -0.1299999 1.8200000 0.1299999
v -0.5200000 1.8200000 0.1299999
v -0.1299999 1.8200000 -0.9100000
v -0.5200000 1.8200000 -0.9100000
v 0.5200000 1.8200000 -0.9100000
v 0.5200000 1.8200000 0.1299999
v 0.1299999 1.8200000 -0.9100000
v 0.1299999 1.8200000 0.1299999
v -0.5200000 1.0400000 -1.6900003
v -0.5200000 1.0400000 -0.9100000
v -0.6630003 1.0400000 -1.6900003
v -0.5200000 1.0400000 -0.1299999
v -0.6630003 1.0400000 -0.9100000
v -1.0400003 1.0400000 -0.3900000
v -1.0400003 1.0400000 -0.9100000
v -0.7572500 1.6900000 -1.5599997
v -0.9457500 1.6900000 -1.5599997
v -1.0400003 1.0400000 -1.6900003
v -0.9457500 1.6900000 -1.9500000
v -0.7572500 1.6900000 -1.9500000
v 0.5200000 1.0400000 2.7300000
v 0.3900000 1.7826448 0.2545175
v -0.3900003 1.7826448 0.2545175
v -0.3900003 1.0773552 2.6054834
v 0.3900000 1.0773552 2.6054834
v -0.5200000 1.0400000 2.7300000
v -0.5200000 0.0000000 -0.9100000
v 0.5200000 0.0000000 -0.9100000
v 0.0000127 0.0000000 -0.9100000
v 0.7800000 1.0400000 -2.2099997
v 0.7800000 0.2600000 -2.2099997
v 1.0400000 0.2600000 -2.2099997
v 1.0400000 1.0400000 -2.2099997
v -1.0400003 0.2600000 -2.2099997
v -0.7800000 0.2600000 -2.2099997
v -1.0400003 1.0400000 -2.2099997
v -0.7800000 1.0400000 -2.2099997
v 0.1299999 1.8200000 0.9100000
v -0.1299999 1.8200000 0.9100000
v 1.3000000 1.3000000 -2.4699995
v 0.5200000 1.3000000 -2.4699995
v 1.3000000 1.0400000 -1.6900003
v 0.5200000 1.2133334 -2.2099997
v 1.3000000 0.0000000 -1.6900003
v 0.5200000 0.0000000 -2.2099997
v -0.5200000 0.0000000 -2.2099997
v -0.5200000 1.2133334 -2.2099997
v 0.5200000 1.5600000 -2.2099997
v -0.5200000 1.5600000 -2.2099997
v 0.0000260 1.8200000 -0.9100000
v 0.1299999 2.0800000 -0.9100000
v 0.1299999 2.0800000 -0.1299999
v 0.1299999 1.9500000 0.1299999
v -0.1299999 2.0800000 -0.9100000
v -0.1299999 1.9500000 0.1299999
v -0.1299999 2.0800000 -0.1299999
v -0.5200000 1.3000000 -2.4699995
v -1.3000000 0.0000000 -1.6900003
v -1.3000000 1.3000000 -2.4699995
v -1.3000000 1.0400000 -1.6900003
v 0.5200000 0.0000000 -1.6900003
v -0.5200000 0.0000000 -1.6900003

vn 0.164399 0.986394 0
vn 0 0 -1
vn 0 1 0
vn -0.164399 0.986394 0
vn 0 -1 0
vn 0 0.9915004 -0.1301037
vn -1 0 0
vn 0 0 1
vn 0 -0.9906985 0.1360752
vn 1 0 0
vn -0.9922773 -0.0003233984 0.1240396
vn 0.8944272 0 0.4472135
vn 0.9922773 -0.0003233984 0.1240396
vn -0.8944272 0 0.4472136
vn 0.5547002 0 0.8320503
vn 0.9896504 0.1434993 0
vn -0.9896504 0.1434993 0
vn 0 -0.3713907 -0.9284768
vn 0 0.7071068 0.7071068
vn -0.5547002 0 0.8320503
vn 0 0.9578263 0.2873479
vn 0 -0.9701425 0.2425356
vn 0 0.9159844 0.4012138
vn 0.6529287 0.7254763 0.2176429
vn -0.6529287 0.7254763 0.2176429
vn 0 0.9983801 -0.05689657
vn 0 0.9486833 0.3162278
vn 0.4472136 0 0.8944272
vn 0 0.9805807 -0.1961161
vn 0 0.8944272 0.4472136
vn -0.4472136 0 0.8944272

vt 0.5000000 0.5000000
vt 0.5000000 0.5000000
vt 0.5000000 0.5000000
vt 0.5000000 0.5000000
vt 0.5000000 0.5000000
vt 0.5000000 0.5000000
vt 0.5000000 0.5000000
vt 0.5000000 0.5000000
vt 0.5000000 0.5000000
vt 0.5000000 0.5000000
vt 0.5000000 0.5000000
vt 0.5000000 0.5000000
vt 0.5000000 0.5000000
vt 0.5000000 0.5000000
vt 0.5000000 0.5000000
vt 0.5000000 0.5000000
vt 0.5000000 0.5000000
vt 0.5000000 0.5000000
vt 0.5000000 0.5000000
vt 0.5000000 0.5000000
vt 0.5000000 0.5000000
vt 0.5000000 0.5000000
vt 0.5000000 0.5000000
vt 0.5000000 0.5000000
vt 0.5000000 0.5000000
vt 0.5000000 0.5000000
vt 0.5000000 0.5000000
vt 0.5000000 0.5000000
vt 0.5000000 0.5000000
vt 0.5000000 0.5000000
vt 0.5000000 0.5000000
vt 0.5000000 0.5000000
vt 0.5000000 0.5000000
vt 0.5000000 0.5000000
vt 0.5000000 0.5000000
vt 0.5000000 0.5000000
vt 0.5000000 0.5000000
vt 0.5000000 0.5000000
vt 0.5000000 0.5000000
vt 0.5000000 0.5000000
vt 0.5000000 0.5000000
vt 0.5000000 0.5000000
vt 0.5000000 0.5000000
vt 0.5000000 0.5000000
vt 0.5000000 0.5000000
vt 0.5000000 0.5000000
vt 0.5000000 0.5000000
vt 0.5000000 0.5000000
vt 0.5000000 0.5000000
vt 0.5000000 0.5000000
vt 0.5000000 0.5000000
vt 0.5000000 0.5000000
vt 0.5000000 0.5000000
vt 0.5000000 0.5000000
vt 0.5000000 0.5000000
vt 0.5000000 0.5000000
vt 0.5000000 0.5000000
vt 0.5000000 0.5000000
vt 0.5000000 0.5000000
vt 0.5000000 0.5000000
vt 0.5000000 0.5000000
vt 0.5000000 0.5000000
vt 0.5000000 0.5000000
vt 0.5000000 0.5000000
vt 0.5000000 0.5000000
vt 0.5000000 0.5000000
vt 0.5000000 0.5000000
vt 0.5000000 0.5000000
vt 0.5000000 0.5000000
vt 0.5000000 0.5000000
vt 0.5000000 0.5000000
vt 0.5000000 0.5000000
vt 0.5000000 0.5000000
vt 0.5000000 0.5000000
vt 0.5000000 0.5000000
vt 0.5000000 0.5000000
vt 0.5000000 0.5000000
vt 0.5000000 0.5000000
vt 0.5000000 0.5000000
vt 0.5000000 0.5000000
vt 0.5000000 0.5000000
vt 0.5000000 0.5000000
vt 0.5000000 0.5000000
vt 0.5000000 0.5000000
vt 0.5000000 0.5000000
vt 0.5000000 0.5000000
vt 0.5000000 0.5000000
vt 0.5000000 0.5000000
vt 0.5000000 0.5000000
vt 0.5000000 0.5000000
vt 0.5000000 0.5000000
vt 0.5000000 0.5000000
vt 0.5000000 0.5000000
vt 0.5000000 0.5000000
vt 0.5000000 0.5000000
vt 0.5000000 0.5000000
vt 0.5000000 0.5000000
vt 0.5000000 0.5000000
vt 0.5000000 0.5000000
vt 0.5000000 0.5000000
vt 0.5000000 0.5000000
vt 0.5000000 0.5000000
vt 0.5000000 0.5000000
vt 0.5000000 0.5000000
vt 0.5000000 0.5000000
vt 0.5000000 0.5000000
vt 0.5000000 0.5000000
vt 0.5000000 0.5000000
vt 0.5000000 0.5000000
vt 0.5000000 0.5000000
vt 0.5000000 0.5000000
vt 0.5000000 0.5000000
vt 0.5000000 0.5000000
vt 0.5000000 0.5000000
vt 0.5000000 0.5000000
vt 0.5000000 0.5000000
vt 0.5000000 0.5000000
vt 0.5000000 0.5000000
vt 0.5000000 0.5000000
vt 0.5000000 0.5000000
vt 0.5000000 0.5000000
vt 0.5000000 0.5000000
vt 0.5000000 0.5000000
vt 0.5000000 0.5000000
vt 0.5000000 0.5000000
vt 0.5000000 0.5000000
vt 0.5000000 0.5000000
vt 0.5000000 0.5000000
vt 0.5000000 0.5000000
vt 0.5000000 0.5000000
vt 0.5000000 0.5000000
vt 0.5000000 0.5000000
vt 0.5000000 0.5000000
vt 0.5000000 0.5000000
vt 0.5000000 0.5000000
vt 0.5000000 0.5000000
vt 0.5000000 0.5000000
vt 0.5000000 0.5000000
vt 0.5000000 0.5000000
vt 0.5000000 0.5000000
vt 0.5000000 0.5000000
vt 0.5000000 0.5000000
vt 0.5000000 0.5000000
vt 0.5000000 0.5000000
vt 0.5000000 0.5000000
vt 0.5000000 0.5000000
vt 0.5000000 0.5000000
vt 0.5000000 0.5000000
vt 0.5000000 0.5000000
vt 0.5000000 0.5000000
vt 0.5000000 0.5000000
vt 0.5000000 0.5000000
vt 0.5000000 0.5000000
vt 0.5000000 0.5000000
vt 0.5000000 0.5000000
vt 0.5000000 0.5000000
vt 0.5000000 0.5000000
vt 0.5000000 0.5000000
vt 0.5000000 0.5000000
vt 0.5000000 0.5000000
vt 0.5000000 0.5000000
vt 0.5000000 0.5000000
vt 0.5000000 0.5000000
vt 0.5000000 0.5000000
vt 0.5000000 0.5000000
vt 0.5000000 0.5000000
vt 0.5000000 0.5000000
vt 0.5000000 0.5000000
vt 0.5000000 0.5000000
vt 0.5000000 0.5000000
vt 0.5000000 0.5000000
vt 0.5000000 0.5000000
vt 0.5000000 0.5000000
vt 0.5000000 0.5000000
vt 0.5000000 0.5000000
vt 0.5000000 0.5000000
vt 0.5000000 0.5000000
vt 0.5000000 0.5000000
vt 0.5000000 0.5000000
vt 0.5000000 0.5000000
vt 0.5000000 0.5000000
vt 0.5000000 0.5000000
vt 0.5000000 0.5000000
vt 0.5000000 0.5000000
vt 0.5000000 0.5000000
vt 0.5000000 0.5000000
vt 0.5000000 0.5000000
vt 0.5000000 0.5000000
vt 0.5000000 0.5000000
vt 0.5000000 0.5000000
vt 0.5000000 0.5000000
vt 0.5000000 0.5000000
vt 0.5000000 0.5000000
vt 0.5000000 0.5000000
vt 0.5000000 0.5000000
vt 0.5000000 0.5000000
vt 0.5000000 0.5000000
vt 0.5000000 0.5000000
vt 0.5000000 0.5000000
vt 0.5000000 0.5000000
vt 0.5000000 0.5000000
vt 0.5000000 0.5000000
vt 0.5000000 0.5000000
vt 0.5000000 0.5000000
vt 0.5000000 0.5000000
vt 0.5000000 0.5000000
vt 0.5000000 0.5000000
vt 0.5000000 0.5000000
vt 0.5000000 0.5000000
vt 0.5000000 0.5000000
vt 0.5000000 0.5000000
vt 0.5000000 0.5000000
vt 0.5000000 0.5000000
vt 0.5000000 0.5000000
vt 0.5000000 0.5000000
vt 0.5000000 0.5000000
vt 0.5000000 0.5000000
vt 0.5000000 0.5000000
vt 0.5000000 0.5000000
vt 0.5000000 0.5000000
vt 0.5000000 0.5000000
vt 0.5000000 0.5000000
vt 0.5000000 0.5000000
vt 0.5000000 0.5000000
vt 0.5000000 0.5000000
vt 0.5000000 0.5000000
vt 0.5000000 0.5000000
vt 0.5000000 0.5000000
vt 0.5000000 0.5000000
vt 0.5000000 0.5000000
vt 0.5000000 0.5000000
vt 0.5000000 0.5000000
vt 0.5000000 0.5000000
vt 0.5000000 0.5000000
vt 0.5000000 0.5000000
vt 0.5000000 0.5000000
vt 0.5000000 0.5000000
vt 0.5000000 0.5000000
vt 0.5000000 0.5000000
vt 0.5000000 0.5000000
vt 0.5000000 0.5000000
vt 0.5000000 0.5000000
vt 0.5000000 0.5000000
vt 0.5000000 0.5000000
vt 0.5000000 0.5000000
vt 0.5000000 0.5000000
vt 0.5000000 0.5000000
vt 0.5000000 0.5000000
vt 0.5000000 0.5000000
vt 0.5000000 0.5000000
vt 0.5000000 0.5000000
vt 0.5000000 0.5000000
vt 0.5000000 0.5000000
vt 0.5000000 0.5000000
vt 0.5000000 0.5000000
vt 0.5000000 0.5000000
vt 0.5000000 0.5000000
vt 0.5000000 0.5000000
vt 0.5000000 0.5000000
vt 0.5000000 0.5000000
vt 0.5000000 0.5000000
vt 0.5000000 0.5000000
vt 0.5000000 0.5000000
vt 0.5000000 0.5000000
vt 0.5000000 0.5000000
vt 0.5000000 0.5000000
vt 0.5000000 0.5000000
vt 0.5000000 0.5000000
vt 0.5000000 0.5000000
vt 0.5000000 0.5000000
vt 0.5000000 0.5000000
vt 0.5000000 0.5000000
vt 0.5000000 0.5000000
vt 0.5000000 0.5000000
vt 0.5000000 0.5000000
vt 0.5000000 0.5000000
vt 0.5000000 0.5000000
vt 0.5000000 0.5000000
vt 0.5000000 0.5000000
vt 0.5000000 0.5000000
vt 0.5000000 0.5000000
vt 0.5000000 0.5000000
vt 0.5000000 0.5000000
vt 0.5000000 0.5000000
vt 0.5000000 0.5000000
vt 0.5000000 0.5000000
vt 0.5000000 0.5000000
vt 0.5000000 0.5000000
vt 0.5000000 0.5000000
vt 0.5000000 0.5000000
vt 0.5000000 0.5000000
vt 0.5000000 0.5000000
vt 0.5000000 0.5000000
vt 0.5000000 0.5000000
vt 0.5000000 0.5000000
vt 0.5000000 0.5000000
vt 0.5000000 0.5000000
vt 0.5000000 0.5000000
vt 0.5000000 0.5000000
vt 0.5000000 0.5000000
vt 0.5000000 0.5000000
vt 0.5000000 0.5000000
vt 0.5000000 0.5000000
vt 0.5000000 0.5000000
vt 0.5000000 0.5000000
vt 0.5000000 0.5000000
vt 0.5000000 0.5000000
vt 0.5000000 0.5000000
vt 0.5000000 0.5000000
vt 0.5000000 0.5000000
vt 0.5000000 0.5000000
vt 0.5000000 0.5000000
vt 0.5000000 0.5000000
vt 0.5000000 0.5000000
vt 0.5000000 0.5000000
vt 0.5000000 0.5000000
vt 0.5000000 0.5000000
vt 0.5000000 0.5000000
vt 0.5000000 0.5000000
vt 0.5000000 0.5000000
vt 0.5000000 0.5000000
vt 0.5000000 0.5000000
vt 0.5000000 0.5000000
vt 0.5000000 0.5000000
vt 0.5000000 0.5000000
vt 0.5000000 0.5000000
vt 0.5000000 0.5000000
vt 0.5000000 0.5000000
vt 0.5000000 0.5000000
vt 0.5000000 0.5000000
vt 0.5000000 0.5000000
vt 0.5000000 0.5000000
vt 0.5000000 0.5000000
vt 0.5000000 0.5000000
vt 0.5000000 0.5000000
vt 0.5000000 0.5000000
vt 0.5000000 0.5000000
vt 0.5000000 0.5000000
vt 0.5000000 0.5000000
vt 0.5000000 0.5000000
vt 0.5000000 0.5000000
vt 0.5000000 0.5000000
vt 0.5000000 0.5000000
vt 0.5000000 0.5000000
vt 0.5000000 0.5000000
vt 0.5000000 0.5000000
vt 0.5000000 0.5000000
vt 0.5000000 0.5000000
vt 0.5000000 0.5000000
vt 0.5000000 0.5000000
vt 0.5000000 0.5000000
vt 0.5000000 0.5000000
vt 0.5000000 0.5000000
vt 0.5000000 0.5000000

usemtl metal

f 3/3/1 2/2/1 1/1/1
f 2/2/1 3/3/1 4/4/1
f 4/4/1 3/3/1 5/5/1
f 4/4/1 5/5/1 6/6/1
f 9/9/2 8/8/2 7/7/2
f 8/8/2 9/9/2 10/10/2
f 8/8/2 10/10/2 11/11/2
f 11/11/2 10/10/2 12/12/2
f 13/13/2 7/7/2 8/8/2
f 7/7/2 13/13/2 14/14/2
f 14/14/2 13/13/2 12/12/2
f 14/14/2 12/12/2 10/10/2
f 6/17/3 15/16/3 4/15/3
f 15/16/3 6/17/3 16/18/3
f 15/16/3 16/18/3 17/19/3
f 17/19/3 16/18/3 18/20/3
f 17/19/3 19/21/3 15/16/3
f 22/24/2 21/23/2 20/22/2
f 21/23/2 22/24/2 23/25/2
f 21/23/2 23/25/2 24/26/2
f 24/26/2 23/25/2 25/27/2
f 26/28/2 20/22/2 21/23/2
f 20/22/2 26/28/2 27/29/2
f 27/29/2 26/28/2 25/27/2
f 27/29/2 25/27/2 23/25/2
f 30/32/3 29/31/3 28/30/3
f 29/31/3 30/32/3 31/33/3
f 28/30/3 29/31/3 32/34/3
f 29/31/3 31/33/3 33/35/3
f 34/36/3 32/34/3 29/31/3
f 36/39/4 31/38/4 35/37/4
f 31/38/4 36/39/4 33/40/4
f 33/40/4 36/39/4 37/41/4
f 37/41/4 36/39/4 38/42/4
f 41/45/5 40/44/5 39/43/5
f 40/44/5 41/45/5 42/46/5
f 42/46/5 41/45/5 43/47/5
f 43/47/5 41/45/5 44/48/5
f 44/48/5 41/45/5 45/49/5
f 46/50/5 44/48/5 45/49/5
f 44/48/5 46/50/5 47/51/5
f 46/50/5 45/49/5 48/52/5
f 46/50/5 48/52/5 49/53/5
f 46/50/5 49/53/5 50/54/5
f 51/55/5 40/44/5 42/46/5
f 51/55/5 52/56/5 40/44/5
f 53/57/5 52/56/5 51/55/5
f 54/58/5 52/56/5 53/57/5
f 52/56/5 54/58/5 55/59/5
f 51/55/5 42/46/5 56/60/5
f 59/63/6 58/62/6 57/61/6
f 58/62/6 59/63/6 60/64/6
f 63/67/6 62/66/6 61/65/6
f 62/66/6 63/67/6 64/68/6
f 41/71/7 65/70/7 45/69/7
f 65/70/7 41/71/7 58/72/7
f 34/73/7 45/69/7 65/70/7
f 45/69/7 34/73/7 29/74/7
f 67/77/8 57/76/8 66/75/8
f 57/76/8 67/77/8 62/78/8
f 67/81/9 41/80/9 39/79/9
f 41/80/9 67/81/9 66/82/9
f 19/85/10 68/84/10 15/83/10
f 39/86/10 15/83/10 68/84/10
f 15/83/10 39/86/10 40/87/10
f 39/86/10 68/84/10 61/88/10
f 66/91/11 58/90/11 41/89/11
f 58/90/11 66/91/11 57/92/11
f 63/19/3 61/94/3 68/93/3
f 19/97/12 63/96/12 68/95/12
f 63/96/12 19/97/12 17/98/12
f 17/100/8 64/99/8 63/72/8
f 64/99/8 17/100/8 18/101/8
f 61/104/13 67/103/13 39/102/13
f 67/103/13 61/104/13 62/105/13
f 58/107/3 60/34/3 65/106/3
f 59/109/8 32/108/8 60/88/8
f 32/108/8 59/109/8 28/110/8
f 60/113/14 34/112/14 65/111/14
f 34/112/14 60/113/14 32/114/14

usemtl metalRed

f 2/117/10 54/116/10 1/115/10
f 54/116/10 2/117/10 55/118/10
f 2/121/15 52/120/15 55/119/15
f 52/120/15 2/121/15 4/122/15
f 53/125/2 1/124/2 54/123/2
f 1/124/2 53/125/2 3/126/2
f 71/51/3 70/128/3 69/127/3
f 70/128/3 71/51/3 72/129/3
f 72/129/3 71/51/3 73/48/3
f 74/17/3 70/128/3 72/129/3
f 70/128/3 74/17/3 75/130/3
f 78/133/16 77/132/16 76/131/16
f 77/132/16 78/133/16 75/134/16
f 75/137/10 5/136/10 77/135/10
f 5/136/10 75/137/10 6/73/10
f 6/73/10 75/137/10 74/138/10
f 79/141/3 78/140/3 76/139/3
f 78/140/3 79/141/3 80/142/3
f 69/145/17 80/144/17 79/143/17
f 80/144/17 69/145/17 70/146/17
f 79/149/18 77/148/18 69/147/18
f 77/148/18 79/149/18 76/150/18
f 78/153/19 70/152/19 75/151/19
f 70/152/19 78/153/19 80/154/19
f 83/156/3 82/46/3 81/155/3
f 82/46/3 83/156/3 84/60/3
f 87/157/3 86/47/3 85/48/3
f 86/47/3 87/157/3 88/158/3
f 91/159/3 90/60/3 89/55/3
f 90/60/3 91/159/3 92/160/3
f 92/160/3 91/159/3 93/161/3
f 92/160/3 93/161/3 94/33/3
f 94/33/3 93/161/3 95/162/3
f 96/165/19 95/164/19 93/163/19
f 95/164/19 96/165/19 97/166/19
f 31/85/7 98/168/7 35/167/7
f 98/168/7 31/85/7 95/169/7
f 95/169/7 31/85/7 94/170/7
f 98/173/17 97/172/17 99/171/17
f 97/172/17 98/173/17 95/174/17
f 96/177/16 91/176/16 100/175/16
f 91/176/16 96/177/16 93/178/16
f 99/181/3 96/180/3 100/179/3
f 96/180/3 99/181/3 97/182/3
f 99/185/18 91/184/18 98/183/18
f 91/184/18 99/185/18 100/186/18
f 49/189/7 38/188/7 50/187/7
f 38/188/7 49/189/7 37/190/7
f 48/193/20 37/192/20 49/191/20
f 37/192/20 48/193/20 33/194/20
f 38/197/2 46/196/2 50/195/2
f 46/196/2 38/197/2 36/198/2
f 86/200/10 73/137/10 85/199/10
f 73/137/10 86/200/10 72/201/10
f 72/201/10 86/200/10 101/202/10
f 86/205/21 102/204/21 101/203/21
f 102/204/21 86/205/21 88/206/21
f 102/204/21 88/206/21 103/207/21
f 103/207/21 88/206/21 81/208/21
f 103/207/21 81/208/21 82/209/21
f 103/207/21 82/209/21 104/210/21
f 105/211/21 101/203/21 102/204/21
f 101/203/21 105/211/21 106/212/21
f 106/212/21 105/211/21 104/210/21
f 106/212/21 104/210/21 82/209/21
f 92/214/7 84/213/7 90/169/7
f 84/213/7 92/214/7 82/215/7
f 82/215/7 92/214/7 106/216/7
f 4/217/8 40/28/8 52/23/8
f 40/28/8 4/217/8 15/218/8
f 29/219/8 48/13/8 45/8/8
f 48/13/8 29/219/8 33/220/8
f 43/222/7 44/189/7 107/221/7
f 42/224/10 108/223/10 56/118/10
f 43/227/22 108/226/22 42/225/22
f 108/226/22 43/227/22 109/228/22
f 109/228/22 43/227/22 107/229/22

usemtl dark

f 110/231/10 8/230/10 11/216/10
f 8/230/10 110/231/10 111/232/10
f 8/235/3 112/234/3 13/233/3
f 112/234/3 8/235/3 111/236/3
f 110/11/2 112/13/2 111/8/2
f 112/13/2 110/11/2 113/12/2
f 110/239/5 12/238/5 113/237/5
f 12/238/5 110/239/5 11/240/5
f 112/242/7 12/202/7 13/241/7
f 12/202/7 112/242/7 113/243/7
f 116/26/2 115/28/2 114/23/2
f 115/28/2 116/26/2 117/27/2
f 116/234/5 25/235/5 117/236/5
f 25/235/5 116/234/5 24/233/5
f 116/231/10 21/230/10 24/216/10
f 21/230/10 116/231/10 114/232/10
f 115/242/7 25/202/7 26/241/7
f 25/202/7 115/242/7 117/243/7
f 21/238/3 115/239/3 26/240/3
f 115/239/3 21/238/3 114/237/3
f 118/246/23 104/245/23 105/244/23
f 104/245/23 118/246/23 119/247/23
f 118/250/24 105/249/24 102/248/24
f 104/253/25 119/252/25 103/251/25
f 103/256/26 118/255/26 102/254/26
f 118/255/26 103/256/26 119/257/26

usemtl metalDark

f 10/260/3 120/259/3 14/258/3
f 120/259/3 10/260/3 121/261/3
f 121/264/27 122/263/27 120/262/27
f 122/263/27 121/264/27 77/265/27
f 77/265/27 121/264/27 69/266/27
f 69/266/27 121/264/27 71/267/27
f 71/267/27 121/264/27 123/268/27
f 14/271/10 124/270/10 7/269/10
f 124/270/10 14/271/10 120/272/10
f 124/270/10 120/272/10 122/135/10
f 124/270/10 122/135/10 53/116/10
f 53/116/10 122/135/10 3/273/10
f 122/274/8 5/217/8 3/198/8
f 5/217/8 122/274/8 77/26/8
f 74/277/28 16/276/28 6/275/28
f 16/276/28 74/277/28 72/278/28
f 125/281/7 10/280/7 9/279/7
f 10/280/7 125/281/7 121/282/7
f 121/282/7 125/281/7 123/283/7
f 127/286/2 125/285/2 126/284/2
f 125/285/2 127/286/2 123/287/2
f 123/287/2 127/286/2 128/288/2
f 128/288/2 127/286/2 129/289/2
f 129/292/29 85/291/29 128/290/29
f 85/291/29 129/292/29 87/293/29
f 87/293/29 129/292/29 130/294/29
f 130/294/29 129/292/29 83/295/29
f 83/295/29 129/292/29 84/296/29
f 85/199/10 123/298/10 128/297/10
f 123/298/10 85/199/10 71/135/10
f 71/135/10 85/199/10 73/137/10
f 131/299/10 88/200/10 87/199/10
f 88/200/10 131/299/10 132/300/10
f 88/200/10 132/300/10 133/301/10
f 130/303/2 131/302/2 87/200/2
f 131/302/2 130/303/2 83/215/2
f 131/302/2 83/215/2 134/304/2
f 132/307/30 135/306/30 133/305/30
f 135/306/30 132/307/30 136/308/30
f 133/309/8 81/200/8 88/215/8
f 81/200/8 133/309/8 135/301/8
f 131/157/3 136/311/3 132/310/3
f 136/311/3 131/157/3 134/156/3
f 81/215/7 134/312/7 83/213/7
f 134/312/7 81/215/7 136/313/7
f 136/313/7 81/215/7 135/309/7
f 27/271/10 126/315/10 20/314/10
f 126/315/10 27/271/10 137/272/10
f 126/315/10 137/272/10 127/298/10
f 138/317/7 23/280/7 22/316/7
f 23/280/7 138/317/7 139/282/7
f 139/282/7 138/317/7 140/168/7
f 140/168/7 138/317/7 46/187/7
f 140/168/7 46/187/7 36/318/7
f 139/321/27 127/320/27 137/319/27
f 127/320/27 139/321/27 89/322/27
f 89/322/27 139/321/27 91/323/27
f 91/323/27 139/321/27 98/324/27
f 98/324/27 139/321/27 140/325/27
f 23/328/3 137/327/3 27/326/3
f 137/327/3 23/328/3 139/329/3
f 89/168/7 129/330/7 127/283/7
f 129/330/7 89/168/7 84/213/7
f 84/213/7 89/168/7 90/169/7
f 92/333/31 31/332/31 30/331/31
f 31/332/31 92/333/31 94/334/31
f 35/220/8 140/335/8 36/126/8
f 140/335/8 35/220/8 98/12/8
f 101/336/8 57/76/8 62/78/8
f 57/76/8 101/336/8 106/337/8
f 101/202/10 16/338/10 72/201/10
f 16/338/10 101/202/10 18/108/10
f 62/339/10 18/108/10 101/202/10
f 18/108/10 62/339/10 64/340/10
f 57/342/7 28/100/7 59/341/7
f 106/216/7 28/100/7 57/342/7
f 106/216/7 30/343/7 28/100/7
f 30/343/7 106/216/7 92/214/7
f 109/344/5 141/55/5 108/60/5
f 126/345/5 141/55/5 109/344/5
f 125/346/5 141/55/5 126/345/5
f 9/326/5 141/55/5 125/346/5
f 7/328/5 141/55/5 9/326/5
f 141/55/5 7/328/5 124/57/5
f 126/345/5 109/344/5 142/51/5
f 142/51/5 109/344/5 107/48/5
f 126/345/5 142/51/5 138/50/5
f 22/258/5 126/345/5 138/50/5
f 126/345/5 22/258/5 20/260/5
f 107/221/7 47/187/7 142/347/7
f 47/187/7 107/221/7 44/189/7
f 47/350/8 138/349/8 142/348/8
f 138/349/8 47/350/8 46/125/8
f 124/353/8 51/352/8 141/351/8
f 51/352/8 124/353/8 53/196/8
f 51/116/10 108/223/10 141/354/10
f 108/223/10 51/116/10 56/118/10

